ply
format ascii 1.0
element vertex 528
property float x
property float y
property float z
end_header
-1.10531 1.27941 -0.468133
-1.09976 1.28591 -0.470511
-1.10511 1.30541 -0.477646
-1.1074 1.32166 -0.483592
-1.1058 1.33358 -0.487952
-1.10401 1.34549 -0.492313
-1.10288 1.35849 -0.497069
-1.20942 1.50583 -0.550978
-1.25324 1.79291 -0.65602
-1.24665 1.80591 -0.660777
-1.22581 1.79833 -0.658002
-1.19999 1.78316 -0.652453
1.07981 1.54591 -0.565644
1.09094 1.54266 -0.564455
1.10743 1.54699 -0.566041
-1.10344 1.26875 -0.474466
-1.09976 1.27736 -0.477686
-1.10144 1.29243 -0.48332
-1.10013 1.30426 -0.487747
-1.09592 1.31287 -0.490966
-1.09156 1.32148 -0.494186
-1.08969 1.33332 -0.498612
-1.09979 1.36022 -0.508673
-1.23886 1.76054 -0.658378
-1.23245 1.77345 -0.663207
-1.21178 1.76592 -0.66039
-1.18614 1.75086 -0.654756
-1.16581 1.74332 -0.651939
-1.10531 1.2624 -0.48241
-1.10069 1.26988 -0.485269
-1.10144 1.28377 -0.490579
-1.09923 1.29446 -0.494664
-1.09323 1.30088 -0.497115
-1.08712 1.30729 -0.499566
-1.08529 1.31905 -0.504059
-1.12154 1.37784 -0.526525
-1.21462 1.71455 -0.655195
-1.20627 1.72417 -0.658871
-1.18889 1.72096 -0.657646
-1.16865 1.71348 -0.654787
-1.10531 1.25389 -0.489548
-1.10347 1.26451 -0.493693
-1.10695 1.28149 -0.500326
-1.10467 1.29211 -0.504471
-1.09592 1.2953 -0.505715
-1.08978 1.30167 -0.508202
-1.08793 1.31335 -0.512761
-1.12067 1.36749 -0.533902
-1.32764 1.67433 -0.653698
-1.31781 1.6807 -0.656185
-1.29881 1.67539 -0.654113
-1.17935 1.67433 -0.653698
-1.16673 1.67751 -0.654942
-1.15115 1.67645 -0.654527
-1.13198 1.67008 -0.65204
-1.10531 1.24538 -0.496687
-1.1044 1.25698 -0.501313
-1.10786 1.27385 -0.508042
-1.10649 1.28545 -0.512668
-1.09862 1.28967 -0.51435
-1.09156 1.29494 -0.516453
-1.09057 1.3076 -0.5215
-1.12154 1.35927 -0.542108
-1.32006 1.65348 -0.659445
-1.31281 1.66297 -0.66323
-1.29222 1.65559 -0.660286
-1.26118 1.6345 -0.651875
-1.13074 1.63555 -0.652296
-1.11687 1.63661 -0.652716
-1.11186 1.24421 -0.506811
-1.10718 1.25154 -0.509798
-1.10786 1.26515 -0.515344
-1.10649 1.27667 -0.520036
-1.10221 1.28505 -0.523449
-1.0969 1.29238 -0.526435
-1.09585 1.30495 -0.531555
-1.1198 1.34789 -0.549046
-1.3108 1.63066 -0.66423
-1.29866 1.63381 -0.66551
-1.27494 1.62229 -0.660817
-1.24817 1.60658 -0.654418
-1.11654 1.24085 -0.516155
-1.1081 1.24397 -0.517453
-1.10695 1.25541 -0.522213
-1.10649 1.26789 -0.527404
-1.10491 1.27933 -0.532164
-1.10223 1.28973 -0.53649
-1.10024 1.30117 -0.541249
-1.12154 1.3407 -0.55769
-1.28628 1.5716 -0.653739
-1.28891 1.5924 -0.662392
-1.27202 1.58928 -0.661094
-1.25107 1.58096 -0.657633
-1.22945 1.5716 -0.653739
-1.21203 1.56744 -0.652009
-1.10532 1.23225 -0.523366
-1.10144 1.24052 -0.526876
-1.10286 1.25498 -0.533018
-1.1067 1.27254 -0.540476
-1.11023 1.2901 -0.547933
-1.11256 1.30662 -0.554953
-1.26029 1.54626 -0.65673
-1.24538 1.54522 -0.656292
-1.2272 1.54006 -0.654098
-1.10999 1.21648 -0.527464
-1.10069 1.21853 -0.528354
-1.09594 1.22571 -0.531467
-1.09923 1.24212 -0.538583
-1.11209 1.26982 -0.550591
-1.12623 1.29956 -0.563488
-1.23672 1.50675 -0.653326
-1.2254 1.50983 -0.65466
-1.20744 1.5047 -0.652437
-1.1128 1.21099 -0.535985
-1.10254 1.21201 -0.536436
-1.09686 1.21812 -0.539141
-1.09923 1.2334 -0.545902
-1.11838 1.26803 -0.561229
-1.21988 1.4758 -0.65319
-1.20792 1.47784 -0.654091
-1.19098 1.47377 -0.652288
-1.12122 1.21153 -0.547283
-1.11088 1.21254 -0.54774
-1.10603 1.21962 -0.550938
-1.1083 1.23479 -0.557791
-1.20557 1.44817 -0.654182
-1.19377 1.4502 -0.655095
-1.17534 1.44413 -0.652354
-1.13058 1.21294 -0.559153
-1.12385 1.21796 -0.561468
-1.12254 1.22901 -0.566559
-1.20286 1.41878 -0.654043
-1.19378 1.4238 -0.656357
-1.17878 1.42179 -0.655431
-1.15971 1.41476 -0.652191
-1.19893 1.38866 -0.653205
-1.18924 1.39265 -0.655081
-1.1761 1.39265 -0.655081
-1.16047 1.38966 -0.653674
-1.20842 1.35983 -0.652601
-1.19724 1.3618 -0.653551
-1.18344 1.36082 -0.653076
-1.20534 1.33224 -0.652247
-1.19611 1.33617 -0.654171
-1.18071 1.33323 -0.652729
-1.19556 1.31175 -0.655086
-1.18467 1.3137 -0.65606
-1.1694 1.31077 -0.654599
-1.19024 1.2827 -0.653354
-1.1849 1.29044 -0.657299
-1.175 1.29335 -0.658778
-1.15896 1.28947 -0.656806
-1.13868 1.28076 -0.652368
-1.25254 1.27315 -0.661363
-1.23821 1.27123 -0.660364
-1.22206 1.26739 -0.658368
-1.20599 1.26354 -0.656371
-1.19272 1.26258 -0.655872
-1.18216 1.26451 -0.65687
-1.17334 1.26835 -0.658867
-1.16181 1.26931 -0.659366
-1.14329 1.26258 -0.655872
-1.23447 1.25789 -0.66634
-1.2165 1.25216 -0.663309
-1.20141 1.2493 -0.661794
-1.18637 1.24644 -0.660278
-1.17228 1.24453 -0.659268
-1.15823 1.24263 -0.658257
-1.14246 1.23881 -0.656237
-1.12415 1.23214 -0.6527
-1.20353 1.22946 -0.664088
-1.18857 1.22662 -0.662555
-1.17366 1.22378 -0.661021
-1.15701 1.21904 -0.658465
-1.13867 1.21242 -0.654886
-1.18954 1.1938 -0.657456
-1.18686 1.20319 -0.662629
-1.17298 1.20131 -0.661595
-1.1546 1.19474 -0.657974
-1.13455 1.18629 -0.653318
-1.17925 1.17439 -0.659382
-1.1674 1.17439 -0.659382
-1.15188 1.17066 -0.657289
-1.13281 1.16321 -0.653102
-1.16802 1.15422 -0.660646
-1.15165 1.14959 -0.657999
-1.13354 1.14312 -0.654293
-1.15772 1.13513 -0.6623
-1.14053 1.12963 -0.659087
-1.12162 1.12229 -0.654804
-1.14275 1.11165 -0.661114
-1.12663 1.1071 -0.658406
-1.10695 1.09891 -0.653533
0.220814 0.951416 -0.565818
0.228654 0.943222 -0.560945
0.237475 0.93958 -0.558779
0.247419 0.940491 -0.55932
0.260618 0.953237 -0.566901
-1.12403 1.08479 -0.657544
-1.10718 1.07937 -0.654259
0.207151 0.926727 -0.561732
0.21215 0.906856 -0.549687
0.219384 0.897823 -0.544212
0.22758 0.893307 -0.541474
0.237359 0.895113 -0.542569
0.250412 0.908662 -0.550782
0.267105 0.933953 -0.566112
-1.12114 1.0627 -0.6565
-1.10812 1.06091 -0.655393
0.203719 0.904104 -0.558523
0.210248 0.891559 -0.550774
0.217398 0.882599 -0.545238
0.225049 0.876326 -0.541363
0.234246 0.876326 -0.541363
0.245931 0.885287 -0.546899
0.260647 0.904104 -0.558523
-1.11642 1.04972 -0.660871
-1.09782 1.0426 -0.656394
0.203315 0.895058 -0.563503
0.210248 0.884392 -0.556788
0.217177 0.874614 -0.550632
0.224589 0.867504 -0.546156
0.233527 0.866615 -0.545596
0.24394 0.871059 -0.548394
0.256514 0.882614 -0.555669
-1.08379 1.02093 -0.655
0.21046 0.878106 -0.563367
0.217398 0.868408 -0.557146
0.225279 0.863118 -0.553752
0.234246 0.862236 -0.553186
0.244438 0.865763 -0.555449
0.255997 0.873698 -0.560539
0.21828 0.86481 -0.565386
0.22666 0.861312 -0.563099
0.235922 0.861312 -0.563099
0.245683 0.863061 -0.564243
-1.06726 0.979098 -0.652245
-1.04635 0.961505 -0.652647
-1.0181 0.895211 -0.654752
-0.99581 0.876741 -0.65328
-0.193153 0.719356 -0.536009
-0.190028 0.739132 -0.550745
-0.174896 0.746548 -0.556271
-0.156644 0.702876 -0.523729
-0.984579 0.859275 -0.652271
-0.188215 0.66651 -0.505944
-0.181205 0.66896 -0.507804
-0.174351 0.672228 -0.510284
-0.166815 0.673044 -0.510904
-0.158487 0.670594 -0.509044
-0.149482 0.664876 -0.504704
-0.140433 0.658342 -0.499744
-0.194448 0.655774 -0.50712
-0.187292 0.657394 -0.508372
-0.180763 0.661442 -0.511502
-0.173716 0.66387 -0.513381
-0.1656 0.662251 -0.512128
-0.157136 0.659013 -0.509624
-0.148013 0.652536 -0.504616
-0.139214 0.646869 -0.500233
-0.134503 0.660632 -0.510876
-0.196128 0.655556 -0.516441
-0.1866 0.649137 -0.511384
-0.179435 0.650742 -0.512648
-0.171809 0.650742 -0.512648
-0.163778 0.649137 -0.511384
-0.155399 0.645928 -0.508855
-0.146543 0.640311 -0.50443
-0.138517 0.637904 -0.502534
-0.131865 0.641916 -0.505695
-0.187523 0.64649 -0.518826
-0.177665 0.638538 -0.512445
-0.169267 0.635358 -0.509892
-0.161956 0.636153 -0.51053
-0.153661 0.632972 -0.507978
-0.145625 0.630587 -0.506063
-0.138517 0.632177 -0.507339
-0.133349 0.64331 -0.516274
-0.188446 0.643786 -0.526317
-0.177665 0.632754 -0.517298
-0.168632 0.627238 -0.512789
-0.160539 0.624874 -0.510856
-0.152503 0.62251 -0.508924
-0.145258 0.623298 -0.509568
-0.138865 0.628026 -0.513433
-0.133349 0.637482 -0.521164
-0.188215 0.63712 -0.530605
-0.177887 0.627751 -0.522802
-0.169055 0.623066 -0.518901
-0.160742 0.619943 -0.5163
-0.153082 0.619162 -0.515649
-0.145993 0.620723 -0.51695
-0.139562 0.625408 -0.520851
-0.133514 0.632435 -0.526704
-0.131959 0.662886 -0.552064
-0.190752 0.639751 -0.542757
-0.179435 0.627374 -0.532256
-0.170114 0.621185 -0.527006
-0.161349 0.616544 -0.523068
-0.154047 0.617318 -0.523724
-0.147278 0.620412 -0.526349
-0.140782 0.625053 -0.530287
-0.134667 0.632016 -0.536194
-0.131337 0.653676 -0.55457
-0.185409 0.642224 -0.555041
-0.172233 0.623065 -0.538483
-0.162766 0.616167 -0.532522
-0.155785 0.618467 -0.534509
-0.149114 0.622298 -0.53782
-0.14235 0.62613 -0.541132
-0.135821 0.631495 -0.545768
-0.131026 0.646056 -0.558353
-0.174563 0.625559 -0.550749
-0.16479 0.617968 -0.544065
-0.157908 0.621004 -0.546739
-0.151318 0.625559 -0.550749
-0.143918 0.627078 -0.552086
-0.136645 0.629355 -0.554091
-0.13056 0.637706 -0.561443
-0.907834 0.729411 -0.654196
-0.175623 0.623384 -0.559102
-0.166005 0.616616 -0.553032
-0.158873 0.618872 -0.555055
-0.151869 0.62188 -0.557753
-0.144441 0.623384 -0.559102
-0.13681 0.624136 -0.559776
-0.129783 0.627895 -0.563148
-0.898475 0.714976 -0.653255
-0.17647 0.620391 -0.566834
-0.16641 0.612199 -0.559349
-0.15868 0.612199 -0.559349
-0.151502 0.614433 -0.561391
-0.143918 0.615178 -0.562071
-0.136151 0.615178 -0.562071
-0.129316 0.619646 -0.566154
-0.159453 0.609228 -0.567064
-0.151685 0.609228 -0.567064
-0.143918 0.609228 -0.567064
-0.86291 0.653467 -0.655261
-0.853551 0.63981 -0.653667
0.0456377 0.515355 -0.546622
0.0522687 0.511232 -0.542249
0.0590259 0.50917 -0.540062
0.0659048 0.508483 -0.539333
0.0729618 0.50917 -0.540062
0.0806848 0.51398 -0.545164
-0.478792 0.512672 -0.554094
-0.441673 0.480035 -0.51882
-0.437499 0.482755 -0.52176
-0.432036 0.484115 -0.52323
-0.424743 0.483435 -0.522495
0.0380707 0.503153 -0.543806
0.0446032 0.498393 -0.538662
0.0513554 0.497033 -0.537192
0.05807 0.495674 -0.535722
0.064836 0.494994 -0.534988
0.0717802 0.495674 -0.535722
0.0793904 0.500433 -0.540867
0.0885394 0.513352 -0.554829
-0.45832 0.471586 -0.519383
-0.453662 0.473604 -0.521606
-0.448312 0.474949 -0.523088
-0.441673 0.474949 -0.523088
-0.436266 0.476295 -0.52457
-0.429609 0.476295 -0.52457
-0.421159 0.474277 -0.522347
-0.411002 0.47024 -0.517901
0.0314485 0.503204 -0.554206
0.0376077 0.491768 -0.541611
0.044299 0.489749 -0.539388
0.0510744 0.489077 -0.538647
0.057831 0.488404 -0.537906
0.0645689 0.487731 -0.537165
0.0714848 0.488404 -0.537906
0.0785274 0.489749 -0.539388
0.086194 0.494459 -0.544574
-0.462922 0.464539 -0.521379
-0.457013 0.465205 -0.522126
-0.452373 0.467202 -0.524367
-0.447042 0.468533 -0.525861
-0.439796 0.467867 -0.525114
-0.432569 0.467202 -0.524367
-0.425361 0.466536 -0.52362
-0.417575 0.465205 -0.522126
-0.409238 0.463208 -0.519885
-0.401536 0.461877 -0.518392
0.0314065 0.49715 -0.557981
0.0374533 0.484505 -0.543788
0.0441164 0.482509 -0.541547
0.0509339 0.482509 -0.541547
0.0576717 0.481843 -0.5408
0.0643907 0.481178 -0.540053
0.0712879 0.481843 -0.5408
0.0782038 0.482509 -0.541547
0.0853731 0.484505 -0.543788
0.0942456 0.495154 -0.55574
-0.468141 0.458195 -0.524092
-0.461596 0.458195 -0.524092
-0.455051 0.458195 -0.524092
-0.448506 0.458195 -0.524092
-0.441961 0.458195 -0.524092
-0.434791 0.457537 -0.523339
-0.42764 0.456878 -0.522586
-0.421114 0.456878 -0.522586
-0.41399 0.45622 -0.521833
-0.407474 0.45622 -0.521833
-0.400957 0.45622 -0.521833
-0.396717 0.458853 -0.524845
0.0314905 0.493086 -0.564002
0.0375048 0.47992 -0.548942
0.0441164 0.477286 -0.54593
0.0508637 0.476628 -0.545177
0.0575124 0.475311 -0.543671
0.0643017 0.475311 -0.543671
0.0711894 0.47597 -0.544424
0.0780959 0.476628 -0.545177
0.0852558 0.478603 -0.547436
0.095259 0.495061 -0.566261
-0.470158 0.455135 -0.530576
-0.460933 0.45253 -0.52754
-0.452436 0.450577 -0.525263
-0.44464 0.449275 -0.523745
-0.435611 0.44667 -0.520709
-0.428535 0.446019 -0.51995
-0.423326 0.447321 -0.521468
-0.417473 0.447972 -0.522227
-0.411003 0.447972 -0.522227
-0.40571 0.449275 -0.523745
-0.400957 0.451228 -0.526022
-0.397286 0.454483 -0.529817
-0.393522 0.457739 -0.533613
0.0377105 0.477273 -0.556384
0.044299 0.474017 -0.552589
0.0509339 0.472064 -0.550312
0.0575921 0.470762 -0.548794
0.0643907 0.470762 -0.548794
0.0712879 0.471413 -0.549553
0.0782038 0.472064 -0.550312
0.0858422 0.476622 -0.555625
-0.481593 0.461046 -0.547808
-0.459606 0.446236 -0.530211
-0.450474 0.44366 -0.527151
-0.442062 0.441729 -0.524855
-0.433071 0.439153 -0.521795
-0.425407 0.437865 -0.520265
-0.420245 0.439153 -0.521795
-0.415046 0.440441 -0.523325
-0.409211 0.441085 -0.52409
-0.404534 0.443016 -0.526385
-0.400957 0.446236 -0.530211
-0.397856 0.450099 -0.534801
-0.395201 0.454607 -0.540157
-0.39957 0.467485 -0.555459
0.0380707 0.4765 -0.56617
0.0446641 0.472637 -0.56158
0.0513554 0.470705 -0.559285
0.0579904 0.468773 -0.556989
0.0645689 0.466841 -0.554694
0.0713863 0.466841 -0.554694
0.0785274 0.468773 -0.556989
0.0865458 0.475212 -0.56464
-0.456953 0.438697 -0.531315
-0.449167 0.437424 -0.529773
-0.440773 0.435513 -0.527459
-0.433071 0.43424 -0.525917
-0.424782 0.43233 -0.523604
-0.418397 0.43233 -0.523604
-0.413225 0.433603 -0.525146
-0.408614 0.435513 -0.527459
-0.405122 0.438697 -0.531315
-0.400957 0.441244 -0.5344
-0.397286 0.444427 -0.538255
-0.395761 0.450158 -0.545196
-0.395167 0.457162 -0.553678
0.0586276 0.468623 -0.567559
0.0651923 0.466076 -0.564474
0.0719771 0.465439 -0.563703
0.0791746 0.467349 -0.566016
-0.477513 0.453249 -0.559572
-0.450474 0.433734 -0.53548
-0.443351 0.433104 -0.534702
-0.434341 0.430586 -0.531594
-0.424782 0.427439 -0.527708
-0.418397 0.427439 -0.527708
-0.412619 0.428068 -0.528485
-0.408614 0.430586 -0.531594
-0.405122 0.433734 -0.53548
-0.400379 0.435622 -0.537811
-0.396717 0.43877 -0.541697
-0.394641 0.443806 -0.547915
-0.393516 0.450101 -0.555686
-0.392743 0.457026 -0.564236
-0.466166 0.443706 -0.558442
-0.451084 0.435616 -0.54826
-0.437516 0.428771 -0.539644
-0.42791 0.425659 -0.535728
-0.420861 0.425037 -0.534945
-0.414439 0.425037 -0.534945
-0.409809 0.426904 -0.537295
-0.40571 0.429393 -0.540428
-0.400957 0.43126 -0.542777
-0.397286 0.434372 -0.546693
-0.395201 0.43935 -0.552959
-0.392965 0.444328 -0.559225
-0.39112 0.449929 -0.566274
-0.441961 0.428113 -0.549334
-0.432289 0.425038 -0.545387
-0.425791 0.425038 -0.545387
-0.418686 0.424423 -0.544598
-0.412795 0.425038 -0.545387
-0.408062 0.426883 -0.547755
-0.40385 0.429344 -0.550912
-0.400132 0.432419 -0.554859
-0.39744 0.436725 -0.560384
-0.394066 0.440415 -0.565119
-0.446407 0.427355 -0.559108
-0.436668 0.424316 -0.555131
-0.430104 0.424316 -0.555131
-0.422934 0.423708 -0.554336
-0.416977 0.424316 -0.555131
-0.41159 0.425531 -0.556722
-0.406743 0.427355 -0.559108
-0.402978 0.430395 -0.563084
-0.433185 0.422291 -0.563357
-0.425361 0.42109 -0.561754
-0.418769 0.42109 -0.561754
-0.413942 0.422892 -0.564158
-0.409636 0.425295 -0.567364
