ply
format ascii 1.0
element vertex 420
property float x
property float y
property float z
end_header
-1.11733 1.0133 -0.801079
0.221754 1.25704 -0.874609
0.976976 1.1646 -0.766812
0.600427 1.28792 -0.71685
-0.252784 1.5311 -0.852203
0.0407545 1.30469 -0.672758
-1.03483 1.10266 -0.557704
-1.02101 1.11851 -0.554847
-1.02525 1.11166 -0.551452
-1.03119 1.10677 -0.549027
-1.04163 1.10677 -0.549027
-1.05487 1.10971 -0.550482
-1.01214 1.14038 -0.55477
-1.01487 1.13152 -0.550458
-1.01833 1.12364 -0.546626
-1.02075 1.11477 -0.542314
-1.02572 1.10887 -0.53944
-1.03795 1.11084 -0.540398
-1.04929 1.11182 -0.540877
-1.01097 1.15947 -0.553107
-1.01301 1.14955 -0.548376
-1.01664 1.14162 -0.544591
-1.01744 1.13071 -0.539386
-1.01714 1.11881 -0.533708
-1.02117 1.11186 -0.530396
-1.03151 1.11186 -0.530396
-1.04278 1.11286 -0.53087
-1.02135 1.17972 -0.551782
-1.01651 1.16174 -0.543372
-1.01752 1.15075 -0.538232
-1.01833 1.13977 -0.533093
-1.01534 1.12478 -0.526085
-1.01753 1.11579 -0.52188
-1.02783 1.11579 -0.52188
-1.04278 1.12079 -0.524216
1.04794 1.21221 -0.555849
1.03596 1.21121 -0.555387
1.024 1.2102 -0.554926
1.01374 1.21121 -0.555387
1.0018 1.2102 -0.554926
0.990705 1.2102 -0.554926
-1.03432 1.20316 -0.551697
-1.01651 1.16996 -0.536475
-1.01487 1.15588 -0.530017
-1.01566 1.14481 -0.524943
-1.01624 1.13375 -0.519868
-1.01844 1.12469 -0.515717
-1.02967 1.1257 -0.516178
-1.04743 1.13375 -0.519868
1.03924 1.2106 -0.544149
1.02822 1.2106 -0.544149
1.01804 1.21161 -0.544604
1.00701 1.21161 -0.544604
0.994309 1.20959 -0.543694
0.985764 1.21262 -0.54506
0.984492 1.22478 -0.550524
0.982999 1.23694 -0.555988
0.926675 1.23694 -0.555988
0.907912 1.22681 -0.551435
0.893778 1.22276 -0.549613
0.881911 1.22174 -0.549158
0.871506 1.22276 -0.549613
0.862509 1.22579 -0.550979
0.85205 1.22681 -0.551435
0.845738 1.2339 -0.554622
0.839296 1.24099 -0.55781
0.814693 1.23795 -0.556444
0.800789 1.2339 -0.554622
0.788903 1.23289 -0.554167
0.778314 1.2339 -0.554622
0.769596 1.23795 -0.556444
0.736978 1.23998 -0.557354
0.7245 1.23795 -0.556444
0.714393 1.23998 -0.557354
-1.05421 1.23491 -0.555078
-1.01913 1.18122 -0.530944
-1.01134 1.15995 -0.521381
-1.01298 1.14982 -0.516828
-1.01624 1.14171 -0.513185
-1.02117 1.13563 -0.510453
-1.03243 1.13665 -0.510908
-1.04836 1.14272 -0.51364
1.04324 1.21088 -0.533467
1.03055 1.20884 -0.532568
1.02133 1.21088 -0.533467
1.01208 1.21292 -0.534366
1.0028 1.21496 -0.535265
0.990145 1.21292 -0.534366
0.98494 1.22006 -0.537512
0.985306 1.23435 -0.543804
0.983804 1.24659 -0.549197
0.980488 1.25679 -0.553691
0.948694 1.25985 -0.555039
0.928951 1.24863 -0.550096
0.912411 1.24149 -0.54695
0.89748 1.23639 -0.544703
0.884105 1.23333 -0.543354
0.870784 1.23027 -0.542006
0.859658 1.23027 -0.542006
0.849235 1.23129 -0.542455
0.843654 1.23945 -0.546051
0.839296 1.24965 -0.550545
0.831374 1.25475 -0.552792
0.818693 1.25271 -0.551893
0.804076 1.24761 -0.549646
0.789552 1.24251 -0.547399
0.776397 1.23945 -0.546051
0.767077 1.24251 -0.547399
0.758322 1.24659 -0.549197
0.748271 1.24863 -0.550096
0.73758 1.24965 -0.550545
0.728057 1.25271 -0.551893
0.723148 1.26393 -0.556837
-1.04535 1.22006 -0.537512
-1.01576 1.17314 -0.516838
-1.01119 1.1558 -0.509198
-1.01534 1.14866 -0.506052
-1.02026 1.14253 -0.503356
-1.02783 1.13947 -0.502007
-1.04278 1.14458 -0.504254
1.06396 1.23057 -0.531306
1.03708 1.21208 -0.523323
1.0262 1.21208 -0.523323
1.01875 1.21619 -0.525097
1.01038 1.21927 -0.526428
0.999431 1.21927 -0.526428
0.98848 1.21927 -0.526428
0.986587 1.23057 -0.531306
0.988564 1.24701 -0.538402
0.985414 1.25728 -0.542837
0.981284 1.26652 -0.546828
0.975415 1.27371 -0.549933
0.96553 1.27577 -0.55082
0.948694 1.26858 -0.547715
0.931987 1.26139 -0.544611
0.920658 1.26139 -0.544611
0.907847 1.25933 -0.543724
0.89288 1.2542 -0.541507
0.875117 1.24495 -0.537515
0.858945 1.23776 -0.534411
0.847828 1.23776 -0.534411
0.842266 1.24598 -0.537959
0.838611 1.25728 -0.542837
0.833402 1.26652 -0.546828
0.822693 1.26755 -0.547272
0.809336 1.26447 -0.545941
0.795386 1.26036 -0.544168
0.785344 1.26241 -0.545054
0.779043 1.27063 -0.548602
0.770733 1.27577 -0.55082
0.763554 1.28296 -0.553924
0.188746 1.2922 -0.557916
0.176435 1.28707 -0.555698
0.165007 1.28809 -0.556142
0.153682 1.29015 -0.557029
-0.0201661 1.2922 -0.557916
-0.0894464 1.28707 -0.555698
-1.08643 1.27679 -0.551263
-1.03077 1.19873 -0.517558
-1.01387 1.16689 -0.503809
-1.01443 1.15559 -0.498931
-1.01935 1.14942 -0.49627
-1.02415 1.14326 -0.493609
-1.03163 1.14018 -0.492279
1.06155 1.22352 -0.517638
1.04531 1.21732 -0.515013
1.03181 1.21422 -0.5137
1.02272 1.21628 -0.514575
1.01617 1.22146 -0.516763
1.00613 1.22249 -0.517201
0.994379 1.22146 -0.516763
0.986814 1.22559 -0.518513
0.987411 1.24007 -0.524639
0.987749 1.25455 -0.530765
0.980584 1.25972 -0.532953
0.973326 1.26489 -0.535141
0.967549 1.27213 -0.538204
0.956201 1.27213 -0.538204
0.943317 1.27007 -0.537328
0.931987 1.27007 -0.537328
0.924406 1.27524 -0.539516
0.913771 1.27627 -0.539954
0.897999 1.27007 -0.537328
0.879449 1.25972 -0.532953
0.867499 1.25869 -0.532515
0.862603 1.268 -0.536453
0.860319 1.28144 -0.542142
0.85711 1.29385 -0.547392
0.857059 1.31144 -0.554831
0.355979 1.31868 -0.557894
0.343136 1.31454 -0.556144
0.330367 1.3104 -0.554394
0.317923 1.3073 -0.553081
0.306019 1.30626 -0.552643
0.2946 1.3073 -0.553081
0.283162 1.30833 -0.553518
0.271921 1.3104 -0.554394
0.261053 1.31454 -0.556144
0.249131 1.3135 -0.555706
0.236853 1.3104 -0.554394
0.224275 1.30523 -0.552206
0.211958 1.30109 -0.550455
0.199556 1.29592 -0.548268
0.187395 1.29179 -0.546517
0.17545 1.28868 -0.545205
0.163691 1.28661 -0.54433
0.152336 1.28765 -0.544767
0.141303 1.29179 -0.546517
0.130403 1.29799 -0.549143
0.119487 1.30523 -0.552206
0.1081 1.30833 -0.553518
0.0964296 1.30833 -0.553518
0.0847588 1.30833 -0.553518
0.0732036 1.3104 -0.554394
0.0617571 1.31557 -0.556581
0.0148389 1.31764 -0.557456
0.00305117 1.30316 -0.551331
-0.00850545 1.29282 -0.546955
-0.0200218 1.29179 -0.546517
-0.0316965 1.29799 -0.549143
-0.0435854 1.3073 -0.553081
-0.0555966 1.31557 -0.556581
-0.067332 1.31557 -0.556581
-0.0783215 1.30316 -0.551331
-0.0894464 1.29592 -0.548268
-0.101248 1.29902 -0.54958
-0.113195 1.30316 -0.551331
-0.125216 1.3073 -0.553081
-1.11091 1.31454 -0.556144
-1.07229 1.25559 -0.531203
-1.02101 1.18319 -0.500573
-1.01263 1.16147 -0.491384
-1.01844 1.1563 -0.489196
-1.02231 1.14906 -0.486134
-1.02698 1.14285 -0.483508
1.0436 1.21106 -0.50199
1.03287 1.21106 -0.50199
1.0239 1.21314 -0.502853
1.01489 1.21522 -0.503716
1.00585 1.21731 -0.50458
0.995911 1.21835 -0.505011
0.987643 1.22147 -0.506306
0.984316 1.23084 -0.510191
0.985764 1.24646 -0.516665
0.983678 1.25792 -0.521413
0.972533 1.25792 -0.521413
0.96298 1.26 -0.522277
0.958109 1.26833 -0.52573
0.942208 1.26208 -0.52314
0.932562 1.26417 -0.524003
0.92971 1.27562 -0.528751
0.925156 1.28499 -0.532636
0.916733 1.28916 -0.534362
0.903849 1.28708 -0.533499
0.89028 1.28395 -0.532204
0.886745 1.29541 -0.536952
0.890747 1.31831 -0.546448
0.897815 1.34643 -0.558102
0.58084 1.33081 -0.551628
0.565488 1.32248 -0.548175
0.551591 1.31727 -0.546017
0.539493 1.31623 -0.545585
0.527831 1.31623 -0.545585
0.516578 1.31727 -0.546017
0.504907 1.31727 -0.546017
0.493626 1.31831 -0.546448
0.482327 1.31936 -0.54688
0.472495 1.32456 -0.549038
0.463295 1.33185 -0.552059
0.451495 1.33185 -0.552059
0.437977 1.32665 -0.549901
0.424885 1.32248 -0.548175
0.412192 1.31936 -0.54688
0.400502 1.31936 -0.54688
0.388813 1.31936 -0.54688
0.377422 1.3204 -0.547311
0.3663 1.32248 -0.548175
0.354862 1.32352 -0.548606
0.343136 1.32352 -0.548606
0.329845 1.31727 -0.546017
0.316666 1.31103 -0.543427
0.304808 1.30998 -0.542995
0.292502 1.30686 -0.5417
0.280252 1.30374 -0.540405
0.268058 1.30061 -0.53911
0.256534 1.30061 -0.53911
0.245207 1.30165 -0.539542
0.233862 1.3027 -0.539974
0.222143 1.30165 -0.539542
0.210273 1.29957 -0.538679
0.198122 1.29541 -0.536952
0.186045 1.29124 -0.535226
0.174464 1.2902 -0.534794
0.163296 1.29228 -0.535657
0.152092 1.29436 -0.536521
0.141076 1.29853 -0.538247
0.130195 1.30478 -0.540837
0.119014 1.30894 -0.542563
0.107417 1.30894 -0.542563
0.0955149 1.30478 -0.540837
0.0836198 1.29957 -0.538679
0.072048 1.29853 -0.538247
0.0607861 1.30374 -0.540405
0.0494318 1.30894 -0.542563
0.0379854 1.31415 -0.544722
0.0263214 1.31311 -0.54429
0.0145943 1.30478 -0.540837
0.00300758 1.29332 -0.536089
-0.00841019 1.28708 -0.533499
-0.0198455 1.28916 -0.534362
-0.031444 1.29645 -0.537384
-0.0431027 1.30165 -0.539542
-0.0547662 1.30478 -0.540837
-0.0662733 1.30374 -0.540405
-0.0775134 1.29853 -0.538247
-0.0889467 1.29749 -0.537816
-0.100603 1.29957 -0.538679
-0.111938 1.29749 -0.537816
-0.123235 1.29541 -0.536952
-0.136336 1.31103 -0.543427
-1.11877 1.33289 -0.552491
-1.08465 1.27874 -0.530046
-1.02012 1.19023 -0.493357
-1.00812 1.1642 -0.482566
-1.01297 1.15795 -0.479977
-1.01771 1.1517 -0.477387
-1.01955 1.14233 -0.473502
-1.02404 1.13608 -0.470912
1.03912 1.21404 -0.492964
1.02843 1.21404 -0.492964
1.01687 1.21299 -0.492539
1.00706 1.21404 -0.492964
0.998102 1.21613 -0.493816
0.989953 1.21928 -0.495093
0.984275 1.22557 -0.497647
0.984316 1.2392 -0.503181
0.986587 1.25597 -0.509993
0.983678 1.26646 -0.51425
0.969313 1.26226 -0.512547
0.955021 1.25807 -0.510844
0.93333 1.27379 -0.51723
0.931987 1.28742 -0.522764
0.927405 1.29686 -0.526595
0.921176 1.3042 -0.529575
0.914818 1.31154 -0.532555
0.906887 1.31678 -0.534683
0.905991 1.3325 -0.541069
0.910448 1.35662 -0.55086
0.611516 1.35557 -0.550434
0.587067 1.32726 -0.53894
0.575841 1.32831 -0.539366
0.561926 1.32307 -0.537238
0.548102 1.31783 -0.535109
0.536078 1.31678 -0.534683
0.524491 1.31678 -0.534683
0.512495 1.31573 -0.534258
0.499719 1.31258 -0.532981
0.486608 1.30839 -0.531278
0.474713 1.30734 -0.530852
0.465437 1.31363 -0.533406
0.457137 1.32307 -0.537238
0.445847 1.32412 -0.537663
0.432132 1.31783 -0.535109
0.418193 1.31049 -0.532129
0.404709 1.3042 -0.529575
0.391652 1.29896 -0.527446
0.380834 1.30105 -0.528298
0.372362 1.31154 -0.532555
0.363993 1.32307 -0.537238
0.354583 1.33146 -0.540643
0.343676 1.3346 -0.54192
0.330106 1.32726 -0.53894
0.316666 1.31992 -0.535961
0.303596 1.31363 -0.533406
0.291104 1.30944 -0.531703
0.278462 1.3042 -0.529575
0.265911 1.29896 -0.527446
0.25407 1.29686 -0.526595
0.242657 1.29686 -0.526595
0.231619 1.29896 -0.527446
0.220721 1.3021 -0.528724
0.209431 1.30315 -0.529149
0.197326 1.29896 -0.527446
0.185295 1.29476 -0.525744
0.17376 1.29371 -0.525318
0.16277 1.29686 -0.526595
0.151847 1.30105 -0.528298
0.140624 1.30315 -0.529149
0.12926 1.3042 -0.529575
0.117783 1.3042 -0.529575
0.10622 1.30315 -0.529149
0.0944477 1.29896 -0.527446
0.0826817 1.29371 -0.525318
0.0711814 1.29162 -0.524467
0.0599122 1.29371 -0.525318
0.048724 1.29896 -0.527446
0.0373834 1.3021 -0.528724
0.025883 1.3 -0.527872
0.014373 1.29371 -0.525318
0.002964 1.28323 -0.521061
-0.00831492 1.28113 -0.520209
-0.0197172 1.28952 -0.523615
-0.0313177 1.3 -0.527872
-0.0429302 1.30525 -0.530001
-0.0542854 1.3021 -0.528724
-0.0654793 1.29686 -0.526595
-0.0766431 1.29267 -0.524892
-0.0882329 1.29581 -0.526169
-0.100039 1.30105 -0.528298
-0.11095 1.29476 -0.525744
-0.121452 1.28533 -0.521912
-1.13291 1.37339 -0.557671
-1.13538 1.36186 -0.552989
-1.06169 1.26017 -0.511695
-1.00673 1.18258 -0.480193
-1.00181 1.16476 -0.472956
-1.00477 1.15637 -0.469551
-1.00851 1.14904 -0.466571
-1.01211 1.1417 -0.463591
-1.01841 1.1375 -0.461888
