ply
format ascii 1.0
element vertex 47
property float x
property float y
property float z
end_header
-0.45203 1.42329 0
-0.411482 1.36385 0
-0.414929 1.35316 0
-0.413338 1.32593 0
-0.41652 1.31393 0
-0.414664 1.28597 0
-0.414929 1.26467 0
-0.413603 1.23858 0
-0.412543 1.21341 0
-0.409361 1.18223 0
-0.409626 1.16116 0
-0.40671 1.13121 0
-0.40724 1.11097 0
-0.398491 1.06586 0
-0.366071 1.03141 0
-0.32819 0.979109 0
-0.325679 0.951448 0
-0.32431 0.927362 0
-0.32043 0.896422 0
-0.315637 0.863466 0
-0.275434 0.801202 0
-0.272078 0.773106 0
-0.2704 0.750118 0
-0.238771 0.708618 0
-0.23571 0.682119 0
-0.206581 0.644742 0
-0.178972 0.608936 0
-0.154867 0.582329 0
-0.152691 0.558275 0
-0.128914 0.529843 0
-0.127269 0.507773 0
-0.125859 0.487009 0
-0.103125 0.458652 0
-0.101837 0.438394 0
-0.100649 0.418916 0
-0.0802087 0.396193 0
-0.0791607 0.377136 0
-0.0783546 0.359556 0
-0.0775485 0.342259 0
-0.0586789 0.322512 0
-0.0403862 0.302618 0
-0.0397743 0.28517 0
-0.0394247 0.269914 0
-0.0389002 0.253743 0
-0.0220487 0.236556 0
-0.00586536 0.221391 0
-0.00582453 0.207751 0
