ply
format ascii 1.0
element vertex 89
property float x
property float y
property float z
end_header
-0.409142 1.43535 0
-0.382355 1.43223 0
-0.355423 1.42807 0
-0.32792 1.42079 0
-0.300903 1.41455 0
-0.270669 1.37136 0
-0.244239 1.36418 0
-0.218567 1.36008 0
-0.193629 1.36008 0
-0.169327 1.36521 0
-0.144729 1.36931 0
-0.119174 1.36418 0
-0.0928155 1.32581 0
-0.0680558 1.32378 0
-0.0434377 1.32378 0
-0.0188483 1.32581 0
0.00582519 1.32985 0
0.0305562 1.32985 0
0.0550769 1.3248 0
0.0795313 1.32176 0
0.104669 1.32884 0
0.128003 1.29595 0
0.1521 1.27428 0
0.174588 1.26052 0
0.199336 1.24591 0
0.226146 1.24167 0
0.251595 1.22761 0
0.275119 1.20416 0
0.299836 1.18631 0
0.320856 1.17356 0
0.345098 1.17356 0
0.370486 1.15858 0
0.395109 1.14083 0
0.420093 1.12392 0
0.443781 1.12219 0
0.466308 1.09928 0
0.489408 1.0782 0
0.514393 1.06132 0
0.527325 1.05724 0
0.537057 1.03041 0
0.555612 1.00446 0
0.561452 0.991841 0
0.585674 0.995195 0
0.592119 0.985858 0
0.601647 0.966243 0
0.620755 0.946567 0
0.637439 0.923709 0
0.650297 0.912173 0
0.637167 0.850887 0
0.612311 0.803143 0
0.595336 0.76673 0
0.592911 0.749517 0
0.574723 0.712868 0
0.556894 0.69921 0
0.536791 0.68266 0
0.517457 0.644962 0
0.506085 0.617965 0
0.48732 0.582705 0
0.471752 0.571024 0
0.450837 0.552803 0
0.429235 0.533568 0
0.411995 0.519628 0
0.375409 0.48085 0
0.362356 0.471829 0
0.341287 0.452268 0
0.324926 0.438757 0
0.307517 0.423711 0
0.288469 0.406188 0
0.270596 0.390053 0
0.256186 0.378769 0
0.240192 0.365051 0
0.221065 0.356676 0
0.20659 0.344811 0
0.191156 0.341463 0
0.176234 0.328394 0
0.163149 0.318643 0
0.148759 0.316396 0
0.133016 0.310554 0
0.118457 0.296683 0
0.104392 0.283493 0
0.0906276 0.270533 0
0.0771641 0.257804 0
0.0645923 0.25702 0
0.052255 0.247569 0
0.0393093 0.243795 0
0.0269498 0.232674 0
0.014825 0.231585 0
0.00280406 0.22065 0
-0.00892813 0.207521 0
